<svg xmlns="http://www.w3.org/2000/svg" viewBox="0 0 256 256" width="256" height="256" role="img" aria-label="Placeholder pembayaran QR">
  <rect width="256" height="256" fill="#ffffff"/>
  <g fill="#09090b">
    <!-- Three position markers (corner squares typical of QR codes) -->
    <rect x="16" y="16" width="56" height="56"/>
    <rect x="184" y="16" width="56" height="56"/>
    <rect x="16" y="184" width="56" height="56"/>
  </g>
  <g fill="#ffffff">
    <rect x="24" y="24" width="40" height="40"/>
    <rect x="192" y="24" width="40" height="40"/>
    <rect x="24" y="192" width="40" height="40"/>
  </g>
  <g fill="#09090b">
    <rect x="32" y="32" width="24" height="24"/>
    <rect x="200" y="32" width="24" height="24"/>
    <rect x="32" y="200" width="24" height="24"/>
  </g>
  <!-- Decorative data blocks (purely visual placeholder) -->
  <g fill="#09090b">
    <rect x="88" y="16" width="8" height="8"/>
    <rect x="104" y="24" width="8" height="8"/>
    <rect x="120" y="16" width="8" height="8"/>
    <rect x="144" y="32" width="8" height="8"/>
    <rect x="160" y="24" width="8" height="8"/>
    <rect x="88" y="48" width="16" height="8"/>
    <rect x="120" y="48" width="8" height="16"/>
    <rect x="144" y="56" width="8" height="8"/>
    <rect x="88" y="80" width="8" height="8"/>
    <rect x="104" y="88" width="16" height="8"/>
    <rect x="128" y="80" width="8" height="24"/>
    <rect x="144" y="96" width="8" height="8"/>
    <rect x="160" y="80" width="16" height="8"/>
    <rect x="184" y="88" width="8" height="16"/>
    <rect x="208" y="96" width="8" height="8"/>
    <rect x="224" y="88" width="8" height="8"/>
    <rect x="16" y="112" width="8" height="8"/>
    <rect x="32" y="120" width="16" height="8"/>
    <rect x="56" y="112" width="8" height="16"/>
    <rect x="80" y="120" width="8" height="8"/>
    <rect x="96" y="112" width="16" height="16"/>
    <rect x="120" y="120" width="8" height="8"/>
    <rect x="136" y="112" width="8" height="24"/>
    <rect x="152" y="128" width="16" height="8"/>
    <rect x="176" y="120" width="8" height="8"/>
    <rect x="192" y="128" width="8" height="16"/>
    <rect x="216" y="112" width="8" height="8"/>
    <rect x="232" y="120" width="8" height="8"/>
    <rect x="16" y="144" width="16" height="8"/>
    <rect x="40" y="152" width="8" height="8"/>
    <rect x="56" y="144" width="8" height="16"/>
    <rect x="72" y="152" width="16" height="8"/>
    <rect x="96" y="160" width="8" height="8"/>
    <rect x="112" y="144" width="16" height="8"/>
    <rect x="136" y="152" width="8" height="16"/>
    <rect x="160" y="160" width="8" height="8"/>
    <rect x="176" y="144" width="16" height="8"/>
    <rect x="200" y="152" width="8" height="8"/>
    <rect x="216" y="144" width="8" height="16"/>
    <rect x="232" y="160" width="8" height="8"/>
    <rect x="88" y="176" width="8" height="8"/>
    <rect x="104" y="184" width="16" height="8"/>
    <rect x="128" y="176" width="8" height="16"/>
    <rect x="152" y="192" width="8" height="8"/>
    <rect x="168" y="176" width="16" height="8"/>
    <rect x="184" y="200" width="8" height="8"/>
    <rect x="200" y="216" width="16" height="8"/>
    <rect x="224" y="200" width="8" height="16"/>
    <rect x="88" y="208" width="16" height="8"/>
    <rect x="112" y="216" width="8" height="16"/>
    <rect x="136" y="232" width="16" height="8"/>
    <rect x="168" y="216" width="8" height="8"/>
    <rect x="184" y="232" width="16" height="8"/>
  </g>
  <text x="128" y="256" font-family="system-ui, sans-serif" font-size="0" fill="transparent">QR placeholder</text>
</svg>
